<svg xmlns="http://www.w3.org/2000/svg" width="40" height="40" viewBox="0 0 40 40" fill="none">
<path d="M13.3333 13.3333C12.8913 13.3333 12.4674 13.5089 12.1548 13.8215C11.8423 14.1341 11.6667 14.558 11.6667 15C11.6667 15.442 11.8423 15.866 12.1548 16.1785C12.4674 16.4911 12.8913 16.6667 13.3333 16.6667H15C15.442 16.6667 15.866 16.4911 16.1785 16.1785C16.4911 15.866 16.6667 15.442 16.6667 15C16.6667 14.558 16.4911 14.1341 16.1785 13.8215C15.866 13.5089 15.442 13.3333 15 13.3333H13.3333ZM21.6667 33.3333H10C9.55797 33.3333 9.13405 33.1577 8.82149 32.8452C8.50893 32.5326 8.33333 32.1087 8.33333 31.6667V8.33334C8.33333 7.89132 8.50893 7.46739 8.82149 7.15483C9.13405 6.84227 9.55797 6.66668 10 6.66668H18.3333V11.6667C18.3333 12.9928 18.8601 14.2645 19.7978 15.2022C20.7355 16.1399 22.0073 16.6667 23.3333 16.6667H28.3333V20C28.3333 20.442 28.5089 20.866 28.8215 21.1785C29.134 21.4911 29.558 21.6667 30 21.6667C30.442 21.6667 30.866 21.4911 31.1785 21.1785C31.4911 20.866 31.6667 20.442 31.6667 20V15C31.6667 15 31.6667 15 31.6667 14.9C31.6493 14.7469 31.6158 14.5961 31.5667 14.45V14.3C31.4865 14.1286 31.3796 13.9711 31.25 13.8333L21.25 3.83334C21.1122 3.7037 20.9547 3.59681 20.7833 3.51668C20.7282 3.50703 20.6718 3.50703 20.6167 3.51668C20.4546 3.43002 20.2804 3.36821 20.1 3.33334H10C8.67392 3.33334 7.40215 3.86013 6.46447 4.79781C5.52678 5.73549 5 7.00726 5 8.33334V31.6667C5 32.9928 5.52678 34.2645 6.46447 35.2022C7.40215 36.1399 8.67392 36.6667 10 36.6667H21.6667C22.1087 36.6667 22.5326 36.4911 22.8452 36.1785C23.1577 35.866 23.3333 35.442 23.3333 35C23.3333 34.558 23.1577 34.1341 22.8452 33.8215C22.5326 33.5089 22.1087 33.3333 21.6667 33.3333ZM21.6667 9.01668L25.9833 13.3333H23.3333C22.8913 13.3333 22.4674 13.1577 22.1548 12.8452C21.8423 12.5326 21.6667 12.1087 21.6667 11.6667V9.01668ZM23.3333 20H13.3333C12.8913 20 12.4674 20.1756 12.1548 20.4882C11.8423 20.8007 11.6667 21.2246 11.6667 21.6667C11.6667 22.1087 11.8423 22.5326 12.1548 22.8452C12.4674 23.1577 12.8913 23.3333 13.3333 23.3333H23.3333C23.7754 23.3333 24.1993 23.1577 24.5118 22.8452C24.8244 22.5326 25 22.1087 25 21.6667C25 21.2246 24.8244 20.8007 24.5118 20.4882C24.1993 20.1756 23.7754 20 23.3333 20ZM34.5167 30.4833C34.3617 30.3271 34.1774 30.2031 33.9743 30.1185C33.7712 30.0339 33.5534 29.9903 33.3333 29.9903C33.1133 29.9903 32.8955 30.0339 32.6924 30.1185C32.4893 30.2031 32.3049 30.3271 32.15 30.4833L31.6667 30.9833V26.6667C31.6667 26.2246 31.4911 25.8007 31.1785 25.4882C30.866 25.1756 30.442 25 30 25C29.558 25 29.134 25.1756 28.8215 25.4882C28.5089 25.8007 28.3333 26.2246 28.3333 26.6667V30.9833L27.85 30.4833C27.5362 30.1695 27.1105 29.9932 26.6667 29.9932C26.2228 29.9932 25.7972 30.1695 25.4833 30.4833C25.1695 30.7972 24.9932 31.2228 24.9932 31.6667C24.9932 32.1105 25.1695 32.5362 25.4833 32.85L28.8167 36.1833C28.9752 36.3351 29.1621 36.454 29.3667 36.5333C29.5662 36.6215 29.7819 36.6671 30 36.6671C30.2181 36.6671 30.4338 36.6215 30.6333 36.5333C30.8379 36.454 31.0248 36.3351 31.1833 36.1833L34.5167 32.85C34.6729 32.6951 34.7969 32.5107 34.8815 32.3076C34.9661 32.1045 35.0097 31.8867 35.0097 31.6667C35.0097 31.4467 34.9661 31.2288 34.8815 31.0257C34.7969 30.8226 34.6729 30.6383 34.5167 30.4833ZM20 30C20.442 30 20.866 29.8244 21.1785 29.5119C21.4911 29.1993 21.6667 28.7754 21.6667 28.3333C21.6667 27.8913 21.4911 27.4674 21.1785 27.1548C20.866 26.8423 20.442 26.6667 20 26.6667H13.3333C12.8913 26.6667 12.4674 26.8423 12.1548 27.1548C11.8423 27.4674 11.6667 27.8913 11.6667 28.3333C11.6667 28.7754 11.8423 29.1993 12.1548 29.5119C12.4674 29.8244 12.8913 30 13.3333 30H20Z" fill="#016AE7"/>
</svg>