<svg xmlns="http://www.w3.org/2000/svg" width="40" height="40" viewBox="0 0 40 40" fill="none">
<path d="M33.3327 14.9C33.3153 14.7469 33.2818 14.5961 33.2327 14.45V14.3C33.1525 14.1286 33.0457 13.9711 32.916 13.8333L22.916 3.83333C22.7782 3.70369 22.6207 3.5968 22.4493 3.51667C22.3996 3.5096 22.3491 3.5096 22.2993 3.51667C22.13 3.41957 21.9431 3.35724 21.7493 3.33333H11.666C10.3399 3.33333 9.06816 3.86012 8.13048 4.7978C7.1928 5.73548 6.66602 7.00725 6.66602 8.33333V31.6667C6.66602 32.9928 7.1928 34.2645 8.13048 35.2022C9.06816 36.1399 10.3399 36.6667 11.666 36.6667H28.3327C29.6588 36.6667 30.9305 36.1399 31.8682 35.2022C32.8059 34.2645 33.3327 32.9928 33.3327 31.6667V15C33.3327 15 33.3327 15 33.3327 14.9ZM23.3327 9.01667L27.6493 13.3333H24.9993C24.5573 13.3333 24.1334 13.1577 23.8208 12.8452C23.5083 12.5326 23.3327 12.1087 23.3327 11.6667V9.01667ZM29.9993 31.6667C29.9993 32.1087 29.8238 32.5326 29.5112 32.8452C29.1986 33.1577 28.7747 33.3333 28.3327 33.3333H11.666C11.224 33.3333 10.8001 33.1577 10.4875 32.8452C10.1749 32.5326 9.99935 32.1087 9.99935 31.6667V8.33333C9.99935 7.8913 10.1749 7.46738 10.4875 7.15482C10.8001 6.84226 11.224 6.66667 11.666 6.66667H19.9993V11.6667C19.9993 12.9927 20.5261 14.2645 21.4638 15.2022C22.4015 16.1399 23.6733 16.6667 24.9993 16.6667H29.9993V31.6667ZM23.816 20.4833L18.3327 25.9833L16.1827 23.8167C15.8688 23.5028 15.4432 23.3265 14.9993 23.3265C14.5555 23.3265 14.1299 23.5028 13.816 23.8167C13.5022 24.1305 13.3259 24.5562 13.3259 25C13.3259 25.4438 13.5022 25.8695 13.816 26.1833L17.1493 29.5167C17.3043 29.6729 17.4886 29.7969 17.6917 29.8815C17.8948 29.9661 18.1127 30.0097 18.3327 30.0097C18.5527 30.0097 18.7705 29.9661 18.9736 29.8815C19.1767 29.7969 19.3611 29.6729 19.516 29.5167L26.1827 22.85C26.4965 22.5362 26.6728 22.1105 26.6728 21.6667C26.6728 21.2228 26.4965 20.7972 26.1827 20.4833C25.8688 20.1695 25.4432 19.9932 24.9993 19.9932C24.5555 19.9932 24.1299 20.1695 23.816 20.4833Z" fill="#016AE7"/>
</svg>